<svg width="190" height="40" viewBox="0 0 190 40" fill="none" xmlns="http://www.w3.org/2000/svg">
<path d="M35.213 11.501L35.206 6.288L25.586 0V4.022L31.931 8.2L31.936 11.402L28.988 13.398L26.977 11.931V9.446L23.7 7.204V11.727L18.505 14.915L18.495 23.335L14.822 25.403L12.937 23.926V21.488L15.169 19.959V19.939V16.166L11.152 18.854L8.081 16.856L5.276 18.693L9.659 21.694V23.536L6.5 25.674L3.277 23.492V16.23L8.062 12.991L8.066 9.875L14.203 13.827L19.361 10.394L16.216 8.559L14.159 9.947L9.677 6.983L14.731 4.036L19.11 6.603V2.775L14.736 0.211L4.794 6.008L4.787 11.223L0 14.465V25.257L4.787 28.499L4.794 33.714L14.414 40V35.981L8.069 31.803L8.064 28.601L11.012 26.605L13.023 28.072V30.557L16.3 32.798V28.275L21.569 25.088L21.628 16.667L25.178 14.599L27.063 16.076V18.514L24.831 20.043V20.063V23.837L28.848 21.148L31.919 23.146L34.724 21.309L30.34 18.306V16.466L33.5 14.329L36.723 16.511V23.772L31.939 27.012L31.934 30.127L25.797 26.173L20.639 29.584L23.784 31.416L25.841 30.055L30.323 33.019L25.269 35.966L20.89 33.399V37.225L25.264 39.789L35.206 33.995L35.213 28.779L40 25.537V14.743L35.213 11.501Z" fill="#AC6AFF"/>
<path d="M57.872 31V11.63H61.252L68.506 21.484H66.894L73.992 11.63H77.372V31H73.81V15.66L75.188 15.998L67.83 25.8H67.414L60.238 15.998L61.408 15.66V31H57.872ZM80.793 31V16.856H84.199V31H80.793ZM80.793 15.27V11.63H84.199V15.27H80.793ZM87.3438 31V16.856H90.5418V19.638L90.2818 19.144C90.6111 18.2947 91.1485 17.6533 91.8938 17.22C92.6565 16.7693 93.5405 16.544 94.5458 16.544C95.5858 16.544 96.5045 16.7693 97.3018 17.22C98.1165 17.6707 98.7491 18.3033 99.1998 19.118C99.6505 19.9153 99.8758 20.8427 99.8758 21.9V31H96.4698V22.706C96.4698 22.082 96.3485 21.5447 96.1058 21.094C95.8631 20.6433 95.5251 20.2967 95.0918 20.054C94.6758 19.794 94.1818 19.664 93.6098 19.664C93.0551 19.664 92.5611 19.794 92.1278 20.054C91.6945 20.2967 91.3565 20.6433 91.1138 21.094C90.8711 21.5447 90.7498 22.082 90.7498 22.706V31H87.3438ZM109.334 31.312C107.965 31.312 106.743 30.9913 105.668 30.35C104.593 29.6913 103.744 28.7987 103.12 27.672C102.496 26.5453 102.184 25.2973 102.184 23.928C102.184 22.5413 102.496 21.2933 103.12 20.184C103.744 19.0747 104.593 18.1907 105.668 17.532C106.76 16.8733 107.973 16.544 109.308 16.544C110.383 16.544 111.336 16.7607 112.168 17.194C113.017 17.61 113.685 18.1993 114.17 18.962L113.65 19.664V11.318H117.056V31H113.832V28.27L114.196 28.946C113.711 29.7087 113.035 30.298 112.168 30.714C111.301 31.1127 110.357 31.312 109.334 31.312ZM109.698 28.192C110.478 28.192 111.163 28.01 111.752 27.646C112.341 27.282 112.801 26.7793 113.13 26.138C113.477 25.4967 113.65 24.76 113.65 23.928C113.65 23.1133 113.477 22.3853 113.13 21.744C112.801 21.0853 112.341 20.574 111.752 20.21C111.163 19.846 110.478 19.664 109.698 19.664C108.935 19.664 108.251 19.8547 107.644 20.236C107.037 20.6 106.561 21.1027 106.214 21.744C105.885 22.368 105.72 23.096 105.72 23.928C105.72 24.76 105.885 25.4967 106.214 26.138C106.561 26.7793 107.037 27.282 107.644 27.646C108.251 28.01 108.935 28.192 109.698 28.192ZM123.787 31L118.925 16.856H122.513L126.075 27.594L124.827 27.568L128.623 16.856H131.639L135.409 27.568L134.161 27.594L137.723 16.856H141.311L136.449 31H133.407L129.559 19.794H130.703L126.803 31H123.787ZM146.96 31.312C145.972 31.312 145.114 31.1473 144.386 30.818C143.658 30.4887 143.095 30.0207 142.696 29.414C142.297 28.79 142.098 28.0707 142.098 27.256C142.098 26.476 142.271 25.7827 142.618 25.176C142.965 24.552 143.502 24.032 144.23 23.616C144.958 23.2 145.877 22.9053 146.986 22.732L151.614 21.978V24.578L147.636 25.254C146.96 25.3753 146.457 25.592 146.128 25.904C145.799 26.216 145.634 26.6233 145.634 27.126C145.634 27.6113 145.816 28.0013 146.18 28.296C146.561 28.5733 147.029 28.712 147.584 28.712C148.295 28.712 148.919 28.5647 149.456 28.27C150.011 27.958 150.435 27.5333 150.73 26.996C151.042 26.4587 151.198 25.8693 151.198 25.228V21.588C151.198 20.9813 150.955 20.4787 150.47 20.08C150.002 19.664 149.378 19.456 148.598 19.456C147.87 19.456 147.22 19.6553 146.648 20.054C146.093 20.4353 145.686 20.9467 145.426 21.588L142.644 20.236C142.921 19.4907 143.355 18.8493 143.944 18.312C144.551 17.7573 145.261 17.324 146.076 17.012C146.891 16.7 147.775 16.544 148.728 16.544C149.889 16.544 150.912 16.7607 151.796 17.194C152.68 17.61 153.365 18.1993 153.85 18.962C154.353 19.7073 154.604 20.5827 154.604 21.588V31H151.38V28.582L152.108 28.53C151.744 29.1367 151.311 29.648 150.808 30.064C150.305 30.4627 149.733 30.7747 149.092 31C148.451 31.208 147.74 31.312 146.96 31.312ZM161.762 31L156.198 16.856H159.916L163.946 27.984H162.568L166.624 16.856H170.342L164.778 31H161.762ZM178.679 31.312C177.223 31.312 175.949 30.9827 174.857 30.324C173.765 29.6653 172.915 28.7727 172.309 27.646C171.702 26.5193 171.399 25.2713 171.399 23.902C171.399 22.4807 171.702 21.224 172.309 20.132C172.933 19.0227 173.773 18.1473 174.831 17.506C175.905 16.8647 177.101 16.544 178.419 16.544C179.528 16.544 180.499 16.726 181.331 17.09C182.18 17.454 182.899 17.9567 183.489 18.598C184.078 19.2393 184.529 19.976 184.841 20.808C185.153 21.6227 185.309 22.5067 185.309 23.46C185.309 23.7027 185.291 23.954 185.257 24.214C185.239 24.474 185.196 24.6993 185.127 24.89H174.207V22.29H183.203L181.591 23.512C181.747 22.7147 181.703 22.004 181.461 21.38C181.235 20.756 180.854 20.262 180.317 19.898C179.797 19.534 179.164 19.352 178.419 19.352C177.708 19.352 177.075 19.534 176.521 19.898C175.966 20.2447 175.541 20.7647 175.247 21.458C174.969 22.134 174.865 22.9573 174.935 23.928C174.865 24.7947 174.978 25.566 175.273 26.242C175.585 26.9007 176.035 27.412 176.625 27.776C177.231 28.14 177.925 28.322 178.705 28.322C179.485 28.322 180.143 28.1573 180.681 27.828C181.235 27.4987 181.669 27.0567 181.981 26.502L184.737 27.854C184.459 28.53 184.026 29.128 183.437 29.648C182.847 30.168 182.145 30.5753 181.331 30.87C180.533 31.1647 179.649 31.312 178.679 31.312Z" fill="white"/>
</svg>
