<svg width="164" height="39" viewBox="0 0 164 39" fill="none" xmlns="http://www.w3.org/2000/svg">
<path d="M50.4533 23.0863C50.8855 22.6149 51.3275 22.1237 51.7793 21.613C52.2508 21.1022 52.7027 20.6013 53.1348 20.1101C53.567 19.5994 53.9697 19.1181 54.343 18.6662C54.7359 18.2144 55.0699 17.8215 55.3449 17.4876H60.5606C59.5194 18.6859 58.4979 19.8351 57.496 20.9352C56.5137 22.0157 55.4333 23.1354 54.2546 24.2945C54.8439 24.8249 55.4529 25.4634 56.0816 26.2099C56.7102 26.9367 57.3192 27.693 57.9085 28.4788C58.4979 29.2646 59.0381 30.0504 59.5292 30.8362C60.0203 31.622 60.4329 32.339 60.7669 32.9873H55.728C55.4136 32.4766 55.0502 31.9167 54.6377 31.3077C54.2448 30.6791 53.8224 30.0602 53.3706 29.4513C52.9187 28.8226 52.4374 28.2235 51.9267 27.6538C51.4356 27.0841 50.9444 26.6028 50.4533 26.2099V32.9873H46.0627V10.828L50.4533 10.1208V23.0863ZM67.8125 32.9873H63.4219V17.4876H67.8125V32.9873ZM68.2251 13.0085C68.2251 13.814 67.9598 14.4524 67.4294 14.9239C66.9187 15.3757 66.3097 15.6017 65.6025 15.6017C64.8953 15.6017 64.2764 15.3757 63.746 14.9239C63.2353 14.4524 62.9799 13.814 62.9799 13.0085C62.9799 12.2031 63.2353 11.5745 63.746 11.1226C64.2764 10.6512 64.8953 10.4154 65.6025 10.4154C66.3097 10.4154 66.9187 10.6512 67.4294 11.1226C67.9598 11.5745 68.2251 12.2031 68.2251 13.0085ZM72.0871 13.6274L76.4777 12.9201V17.4876H81.7524V21.1415H76.4777V26.5929C76.4777 27.5162 76.6349 28.2529 76.9492 28.803C77.2832 29.353 77.9413 29.6281 78.9235 29.6281C79.395 29.6281 79.8763 29.5888 80.3674 29.5102C80.8782 29.412 81.3398 29.2843 81.7524 29.1271L82.3712 32.5453C81.8408 32.7614 81.2514 32.948 80.6031 33.1052C79.9548 33.2623 79.1592 33.3409 78.2163 33.3409C77.0179 33.3409 76.0259 33.1838 75.2401 32.8695C74.4543 32.5355 73.8257 32.0837 73.3542 31.514C72.8827 30.9246 72.5488 30.2174 72.3523 29.3923C72.1755 28.5672 72.0871 27.6538 72.0871 26.6519V13.6274ZM84.3102 25.2374C84.3102 24.1177 84.487 23.0667 84.8407 22.0844C85.2139 21.0826 85.7443 20.2182 86.4319 19.4913C87.1195 18.7448 87.9544 18.1555 88.9366 17.7233C89.9188 17.2911 91.0386 17.075 92.2959 17.075C93.1209 17.075 93.8773 17.1536 94.5648 17.3108C95.2524 17.4483 95.9203 17.6545 96.5686 17.9296L95.6551 21.4362C95.2426 21.279 94.7908 21.1415 94.2996 21.0236C93.8085 20.9058 93.2585 20.8468 92.6495 20.8468C91.3529 20.8468 90.3805 21.2495 89.7322 22.055C89.1036 22.8604 88.7893 23.9212 88.7893 25.2374C88.7893 26.6322 89.0839 27.7127 89.6733 28.4788C90.2823 29.245 91.3333 29.6281 92.8263 29.6281C93.3567 29.6281 93.9264 29.5789 94.5354 29.4807C95.1444 29.3825 95.7042 29.2253 96.215 29.0092L96.8338 32.6042C96.3231 32.8203 95.6846 33.007 94.9184 33.1641C94.1523 33.3213 93.3076 33.3999 92.3843 33.3999C90.9698 33.3999 89.7519 33.1936 88.7303 32.781C87.7088 32.3489 86.8641 31.7693 86.1961 31.0425C85.5479 30.3156 85.0666 29.4611 84.7523 28.4788C84.4576 27.4769 84.3102 26.3965 84.3102 25.2374ZM100.075 32.9873V10.828L104.466 10.1208V17.5465C104.76 17.4483 105.134 17.3599 105.586 17.2813C106.057 17.1831 106.509 17.134 106.941 17.134C108.198 17.134 109.24 17.3108 110.065 17.6644C110.909 17.9983 111.577 18.4796 112.068 19.1083C112.579 19.7369 112.933 20.4834 113.129 21.3478C113.345 22.2121 113.453 23.1747 113.453 24.2356V32.9873H109.063V24.766C109.063 23.3515 108.876 22.3497 108.503 21.7603C108.149 21.171 107.481 20.8763 106.499 20.8763C106.106 20.8763 105.733 20.9156 105.379 20.9942C105.045 21.0531 104.741 21.1218 104.466 21.2004V32.9873H100.075ZM116.985 25.3553C116.985 23.9802 117.192 22.7818 117.604 21.7603C118.036 20.7191 118.596 19.8548 119.284 19.1672C119.971 18.4796 120.757 17.959 121.641 17.6054C122.545 17.2518 123.468 17.075 124.411 17.075C126.611 17.075 128.35 17.7528 129.627 19.1083C130.904 20.4441 131.542 22.4184 131.542 25.0312C131.542 25.2866 131.532 25.5714 131.513 25.8857C131.493 26.1804 131.474 26.4456 131.454 26.6813H121.494C121.592 27.585 122.015 28.302 122.761 28.8324C123.508 29.3629 124.509 29.6281 125.767 29.6281C126.572 29.6281 127.358 29.5593 128.124 29.4218C128.91 29.2646 129.548 29.078 130.039 28.8619L130.629 32.4274C130.393 32.5453 130.079 32.6632 129.686 32.781C129.293 32.8989 128.851 32.9971 128.36 33.0757C127.888 33.1739 127.378 33.2525 126.828 33.3115C126.277 33.3704 125.727 33.3999 125.177 33.3999C123.783 33.3999 122.565 33.1936 121.523 32.781C120.502 32.3685 119.647 31.8086 118.96 31.1014C118.292 30.3746 117.791 29.52 117.457 28.5378C117.143 27.5555 116.985 26.4947 116.985 25.3553ZM127.299 23.6757C127.279 23.3024 127.211 22.939 127.093 22.5854C126.995 22.2318 126.828 21.9175 126.592 21.6424C126.376 21.3674 126.091 21.1415 125.737 20.9647C125.403 20.7879 124.981 20.6995 124.47 20.6995C123.979 20.6995 123.557 20.7879 123.203 20.9647C122.849 21.1218 122.555 21.3379 122.319 21.613C122.083 21.888 121.897 22.2121 121.759 22.5854C121.641 22.939 121.553 23.3024 121.494 23.6757H127.299ZM141.944 10.1208C142.769 10.1208 143.525 10.2092 144.213 10.386C144.9 10.5431 145.431 10.7003 145.804 10.8574L144.949 14.364C144.557 14.1872 144.124 14.0595 143.653 13.981C143.201 13.8827 142.779 13.8336 142.386 13.8336C141.855 13.8336 141.404 13.9122 141.03 14.0694C140.677 14.2069 140.392 14.4033 140.176 14.6587C139.979 14.9141 139.832 15.2186 139.734 15.5722C139.655 15.9258 139.616 16.3089 139.616 16.7214V17.4876H145.038V21.1415H139.616V32.9873H135.225V16.6625C135.225 14.6587 135.785 13.0675 136.905 11.8888C138.044 10.7101 139.724 10.1208 141.944 10.1208Z" fill="white"/>
<path fill-rule="evenodd" clip-rule="evenodd" d="M19.2712 0C14.6301 0 10.8315 3.51786 10.4338 8.01647H8.2681C7.62377 8.01647 7.12813 8.508 7.02901 9.19614L5 36.7815H33.5347L31.5134 9.19614C31.4143 8.508 30.9186 8.01647 30.2743 8.01647H28.1087C27.7109 3.51786 23.9123 0 19.2712 0ZM25.7087 8.01647H12.887C13.1763 4.55949 15.6009 2.49365 19.2712 2.49365C22.9169 2.49365 25.3856 4.59292 25.7087 8.01647ZM24.1413 15.8452C25.8449 15.8452 27.2262 17.2178 27.2262 18.9107C27.2262 20.214 26.407 21.3224 25.248 21.7641C25.248 22.9743 25.2409 23.4717 25.2338 23.9691V23.9692V23.9693C25.2268 24.4666 25.2197 24.964 25.2197 26.174C21.4768 25.3427 17.5989 25.3427 13.856 26.174C13.856 24.9639 13.8631 24.4665 13.8702 23.9692V23.9691V23.9691V23.969V23.9689C13.8772 23.4716 13.8843 22.9742 13.8843 21.7641C12.734 21.3224 11.9149 20.214 11.9149 18.9107C11.9149 17.2178 13.2961 15.8452 14.9998 15.8452C15.588 15.8452 16.1327 16.0097 16.5989 16.2912C17.3265 15.4772 18.3897 14.9619 19.5705 14.9619C20.7557 14.9619 21.8145 15.4772 22.5422 16.2912C23.0084 16.0097 23.553 15.8452 24.1413 15.8452ZM25.2567 27.0248V29.2201C21.5139 28.3887 17.6316 28.3887 13.8931 29.2201V27.0248C17.6359 26.1935 21.5139 26.1935 25.2567 27.0248Z" fill="white"/>
</svg>
