<svg width="164" height="38" viewBox="0 0 164 38" fill="none" xmlns="http://www.w3.org/2000/svg">
<g clip-path="url(#clip0_4_2)">
<g filter="url(#filter0_dd_4_2)">
<path d="M18.3546 13.1827C22.7105 11.4503 27.4742 12.8184 29.6373 14.9132C30.106 15.3671 30.5041 15.8275 30.845 16.2851C31.0394 15.2107 31.0552 14.1405 30.8681 13.1055C30.1847 9.32646 26.6195 7.18558 23.4233 8.29146C20.2415 9.39237 19.0005 11.5321 19.0005 11.5321C19.0005 11.5321 17.7595 9.39237 14.5777 8.29146C11.3812 7.18558 7.81603 9.32669 7.1328 13.1055C6.62842 15.8944 7.58356 18.9391 9.61033 21.6298C10.0372 21.7732 10.4847 21.8809 10.9586 21.943C13.7978 22.3163 14.8184 21.557 16.0178 21.0486C16.8142 20.7112 17.4134 21.0942 17.3843 21.3626C17.3392 21.7786 15.7693 22.4895 16.106 22.6388C17.4351 23.2284 19.0718 23.2334 20.3053 22.18C21.838 20.8712 22.4114 21.7658 22.4114 21.7658C22.4114 21.7658 21.6502 23.7076 19.3581 24.6717C17.4457 25.4761 15.4419 25.6743 13.6107 25.4683C15.19 26.5846 17.0035 27.5204 19.0005 28.1882C24.7099 26.2784 28.9276 22.1871 30.4145 17.9096C29.4072 16.9157 28.1716 16.2995 26.6988 16.0763C23.8674 15.647 22.8322 16.3862 21.6228 16.8708C20.8198 17.1926 20.2285 16.7978 20.263 16.5299C20.3161 16.1148 21.8999 15.4351 21.5661 15.279C20.249 14.6633 18.6125 14.626 17.3585 15.6548C15.8003 16.9332 15.2446 16.0274 15.2446 16.0274C15.2446 16.0274 16.0438 14.1015 18.3546 13.1827ZM17.2709 18.5051H18.3709V17.4052H19.6296V18.5051H20.7296V19.7639H19.6296V20.8638H18.3709V19.7639H17.2709V18.5051Z" fill="white"/>
<path d="M17.2709 18.5052H18.3709V17.4052H19.6296V18.5052H20.7295V19.7639H19.6378C21.2597 20.5834 24.2383 21.8027 27.8177 22.3451C28.9956 20.9517 29.8813 19.4428 30.4143 17.9096C29.4069 16.9157 28.1713 16.2996 26.6986 16.0763C23.8672 15.647 22.8319 16.3863 21.6226 16.8708C20.8196 17.1926 20.2282 16.7978 20.2627 16.5299C20.3159 16.1148 21.8997 15.4351 21.5659 15.279C20.2488 14.6633 18.6123 14.626 17.3583 15.6548C15.8 16.9332 15.2443 16.0274 15.2443 16.0274C15.2443 16.0274 16.0438 14.1013 18.3543 13.1823C22.7102 11.4499 27.4739 12.818 29.637 14.9128C30.1057 15.3666 30.5038 15.8271 30.8447 16.2847C31.0392 15.2102 31.055 14.14 30.8679 13.105C30.1844 9.326 26.6192 7.18512 23.423 8.291C20.2412 9.39191 19.0002 11.5316 19.0002 11.5316C19.0002 11.5316 17.7592 9.39191 14.5774 8.291C12.7519 7.65927 10.8067 8.0883 9.34619 9.27521C10.0323 10.7442 10.836 12.1168 13.1254 14.8773C14.9868 17.1222 17.2709 18.5052 17.2709 18.5052Z" fill="white"/>
<path opacity="0.31" d="M27.277 9.64942C24.2712 8.13932 21.169 10.489 20.1851 11.7298C21.882 11.3724 23.3668 11.189 25.2457 11.5838C28.0252 12.1678 29.0654 13.1714 30.3064 14.6541C30.0871 11.9068 28.3519 10.1895 27.277 9.64942Z" fill="white"/>
</g>
<path d="M43.936 28V25H44.968C45.736 25 46.344 24.784 46.792 24.352C47.256 23.904 47.488 23.312 47.488 22.576V10.12H50.776V22.456C50.776 23.56 50.536 24.528 50.056 25.36C49.592 26.192 48.92 26.84 48.04 27.304C47.176 27.768 46.152 28 44.968 28H43.936ZM57.8459 28.288C56.9339 28.288 56.1419 28.136 55.4699 27.832C54.7979 27.528 54.2779 27.096 53.9099 26.536C53.5419 25.96 53.3579 25.296 53.3579 24.544C53.3579 23.824 53.5179 23.184 53.8379 22.624C54.1579 22.048 54.6539 21.568 55.3259 21.184C55.9979 20.8 56.8459 20.528 57.8699 20.368L62.1419 19.672V22.072L58.4699 22.696C57.8459 22.808 57.3819 23.008 57.0779 23.296C56.7739 23.584 56.6219 23.96 56.6219 24.424C56.6219 24.872 56.7899 25.232 57.1259 25.504C57.4779 25.76 57.9099 25.888 58.4219 25.888C59.0779 25.888 59.6539 25.752 60.1499 25.48C60.6619 25.192 61.0539 24.8 61.3259 24.304C61.6139 23.808 61.7579 23.264 61.7579 22.672V19.312C61.7579 18.752 61.5339 18.288 61.0859 17.92C60.6539 17.536 60.0779 17.344 59.3579 17.344C58.6859 17.344 58.0859 17.528 57.5579 17.896C57.0459 18.248 56.6699 18.72 56.4299 19.312L53.8619 18.064C54.1179 17.376 54.5179 16.784 55.0619 16.288C55.6219 15.776 56.2779 15.376 57.0299 15.088C57.7819 14.8 58.5979 14.656 59.4779 14.656C60.5499 14.656 61.4939 14.856 62.3099 15.256C63.1259 15.64 63.7579 16.184 64.2059 16.888C64.6699 17.576 64.9019 18.384 64.9019 19.312V28H61.9259V25.768L62.5979 25.72C62.2619 26.28 61.8619 26.752 61.3979 27.136C60.9339 27.504 60.4059 27.792 59.8139 28C59.2219 28.192 58.5659 28.288 57.8459 28.288ZM67.8078 28V14.944H70.7598V17.512L70.5198 17.056C70.8238 16.272 71.3198 15.68 72.0078 15.28C72.7118 14.864 73.5278 14.656 74.4558 14.656C75.4158 14.656 76.2638 14.864 76.9998 15.28C77.7518 15.696 78.3358 16.28 78.7518 17.032C79.1678 17.768 79.3758 18.624 79.3758 19.6V28H76.2318V20.344C76.2318 19.768 76.1198 19.272 75.8958 18.856C75.6718 18.44 75.3598 18.12 74.9598 17.896C74.5758 17.656 74.1198 17.536 73.5918 17.536C73.0798 17.536 72.6238 17.656 72.2238 17.896C71.8238 18.12 71.5118 18.44 71.2878 18.856C71.0638 19.272 70.9518 19.768 70.9518 20.344V28H67.8078ZM80.2343 33.304C80.0263 33.304 79.8103 33.296 79.5863 33.28C79.3623 33.264 79.1783 33.24 79.0343 33.208V30.472C79.3223 30.52 79.6103 30.544 79.8983 30.544C80.5703 30.544 81.0903 30.384 81.4583 30.064C81.8423 29.76 82.0343 29.288 82.0343 28.648V14.944H85.1783V28.648C85.1783 29.64 84.9783 30.48 84.5783 31.168C84.1783 31.872 83.6023 32.4 82.8503 32.752C82.1143 33.12 81.2423 33.304 80.2343 33.304ZM82.0343 13.48V10.12H85.1783V13.48H82.0343ZM88.0812 28V14.944H91.2252V28H88.0812ZM88.0812 13.48V10.12H91.2252V13.48H88.0812ZM105.042 28.288C103.906 28.288 102.85 28.08 101.874 27.664C100.914 27.248 100.082 26.672 99.3777 25.936C98.6897 25.184 98.1857 24.312 97.8657 23.32L100.578 22.144C101.01 23.168 101.634 23.976 102.45 24.568C103.266 25.144 104.186 25.432 105.21 25.432C105.786 25.432 106.282 25.344 106.698 25.168C107.13 24.976 107.458 24.72 107.682 24.4C107.922 24.08 108.042 23.696 108.042 23.248C108.042 22.72 107.882 22.288 107.562 21.952C107.258 21.6 106.794 21.328 106.17 21.136L102.738 20.032C101.346 19.6 100.298 18.952 99.5937 18.088C98.8897 17.224 98.5377 16.208 98.5377 15.04C98.5377 14.016 98.7857 13.112 99.2817 12.328C99.7937 11.544 100.498 10.936 101.394 10.504C102.306 10.056 103.346 9.832 104.514 9.832C105.586 9.832 106.57 10.024 107.466 10.408C108.362 10.776 109.13 11.296 109.77 11.968C110.426 12.624 110.914 13.4 111.234 14.296L108.546 15.496C108.194 14.6 107.666 13.912 106.962 13.432C106.258 12.936 105.442 12.688 104.514 12.688C103.97 12.688 103.49 12.784 103.074 12.976C102.658 13.152 102.33 13.408 102.09 13.744C101.866 14.064 101.754 14.448 101.754 14.896C101.754 15.392 101.914 15.832 102.234 16.216C102.554 16.584 103.042 16.872 103.698 17.08L106.986 18.112C108.41 18.576 109.474 19.216 110.178 20.032C110.898 20.848 111.258 21.856 111.258 23.056C111.258 24.08 110.994 24.984 110.466 25.768C109.938 26.552 109.21 27.168 108.282 27.616C107.354 28.064 106.274 28.288 105.042 28.288ZM120.125 28.288C118.781 28.288 117.605 27.984 116.597 27.376C115.589 26.768 114.805 25.944 114.245 24.904C113.685 23.864 113.405 22.712 113.405 21.448C113.405 20.136 113.685 18.976 114.245 17.968C114.821 16.944 115.597 16.136 116.573 15.544C117.565 14.952 118.669 14.656 119.885 14.656C120.909 14.656 121.805 14.824 122.573 15.16C123.357 15.496 124.021 15.96 124.565 16.552C125.109 17.144 125.525 17.824 125.813 18.592C126.101 19.344 126.245 20.16 126.245 21.04C126.245 21.264 126.229 21.496 126.197 21.736C126.181 21.976 126.141 22.184 126.077 22.36H115.997V19.96H124.301L122.813 21.088C122.957 20.352 122.917 19.696 122.693 19.12C122.485 18.544 122.133 18.088 121.637 17.752C121.157 17.416 120.573 17.248 119.885 17.248C119.229 17.248 118.645 17.416 118.133 17.752C117.621 18.072 117.229 18.552 116.957 19.192C116.701 19.816 116.605 20.576 116.669 21.472C116.605 22.272 116.709 22.984 116.981 23.608C117.269 24.216 117.685 24.688 118.229 25.024C118.789 25.36 119.429 25.528 120.149 25.528C120.869 25.528 121.477 25.376 121.973 25.072C122.485 24.768 122.885 24.36 123.173 23.848L125.717 25.096C125.461 25.72 125.061 26.272 124.517 26.752C123.973 27.232 123.325 27.608 122.573 27.88C121.837 28.152 121.021 28.288 120.125 28.288ZM128.628 28V9.832H131.772V17.512L131.34 17.056C131.644 16.272 132.14 15.68 132.828 15.28C133.532 14.864 134.348 14.656 135.276 14.656C136.236 14.656 137.084 14.864 137.82 15.28C138.572 15.696 139.156 16.28 139.572 17.032C139.988 17.768 140.196 18.624 140.196 19.6V28H137.052V20.344C137.052 19.768 136.94 19.272 136.716 18.856C136.492 18.44 136.18 18.12 135.78 17.896C135.396 17.656 134.94 17.536 134.412 17.536C133.9 17.536 133.444 17.656 133.044 17.896C132.644 18.12 132.332 18.44 132.108 18.856C131.884 19.272 131.772 19.768 131.772 20.344V28H128.628ZM146.815 28.288C145.903 28.288 145.111 28.136 144.439 27.832C143.767 27.528 143.247 27.096 142.879 26.536C142.511 25.96 142.327 25.296 142.327 24.544C142.327 23.824 142.487 23.184 142.807 22.624C143.127 22.048 143.623 21.568 144.295 21.184C144.967 20.8 145.815 20.528 146.839 20.368L151.111 19.672V22.072L147.439 22.696C146.815 22.808 146.351 23.008 146.047 23.296C145.743 23.584 145.591 23.96 145.591 24.424C145.591 24.872 145.759 25.232 146.095 25.504C146.447 25.76 146.879 25.888 147.391 25.888C148.047 25.888 148.623 25.752 149.119 25.48C149.631 25.192 150.023 24.8 150.295 24.304C150.583 23.808 150.727 23.264 150.727 22.672V19.312C150.727 18.752 150.503 18.288 150.055 17.92C149.623 17.536 149.047 17.344 148.327 17.344C147.655 17.344 147.055 17.528 146.527 17.896C146.015 18.248 145.639 18.72 145.399 19.312L142.831 18.064C143.087 17.376 143.487 16.784 144.031 16.288C144.591 15.776 145.247 15.376 145.999 15.088C146.751 14.8 147.567 14.656 148.447 14.656C149.519 14.656 150.463 14.856 151.279 15.256C152.095 15.64 152.727 16.184 153.175 16.888C153.639 17.576 153.871 18.384 153.871 19.312V28H150.895V25.768L151.567 25.72C151.231 26.28 150.831 26.752 150.367 27.136C149.903 27.504 149.375 27.792 148.783 28C148.191 28.192 147.535 28.288 146.815 28.288ZM162.494 28.144C161.022 28.144 159.878 27.744 159.062 26.944C158.262 26.128 157.862 24.984 157.862 23.512V17.752H155.606V14.944H155.846C156.486 14.944 156.982 14.776 157.334 14.44C157.686 14.104 157.862 13.616 157.862 12.976V11.968H161.006V14.944H164.006V17.752H161.006V23.344C161.006 23.776 161.078 24.144 161.222 24.448C161.382 24.752 161.622 24.984 161.942 25.144C162.278 25.304 162.702 25.384 163.214 25.384C163.326 25.384 163.454 25.376 163.598 25.36C163.758 25.344 163.91 25.328 164.054 25.312V28C163.83 28.032 163.574 28.064 163.286 28.096C162.998 28.128 162.734 28.144 162.494 28.144Z" fill="white"/>
<rect x="17" y="17" width="4" height="4" fill="white"/>
</g>
<defs>
<filter id="filter0_dd_4_2" x="4" y="6" width="30" height="26.1882" filterUnits="userSpaceOnUse" color-interpolation-filters="sRGB">
<feFlood flood-opacity="0" result="BackgroundImageFix"/>
<feColorMatrix in="SourceAlpha" type="matrix" values="0 0 0 0 0 0 0 0 0 0 0 0 0 0 0 0 0 0 127 0" result="hardAlpha"/>
<feOffset dy="1"/>
<feGaussianBlur stdDeviation="1"/>
<feColorMatrix type="matrix" values="0 0 0 0 0.0627451 0 0 0 0 0.0941176 0 0 0 0 0.156863 0 0 0 0.06 0"/>
<feBlend mode="normal" in2="BackgroundImageFix" result="effect1_dropShadow_4_2"/>
<feColorMatrix in="SourceAlpha" type="matrix" values="0 0 0 0 0 0 0 0 0 0 0 0 0 0 0 0 0 0 127 0" result="hardAlpha"/>
<feOffset dy="1"/>
<feGaussianBlur stdDeviation="1.5"/>
<feColorMatrix type="matrix" values="0 0 0 0 0.0627451 0 0 0 0 0.0941176 0 0 0 0 0.156863 0 0 0 0.1 0"/>
<feBlend mode="normal" in2="effect1_dropShadow_4_2" result="effect2_dropShadow_4_2"/>
<feBlend mode="normal" in="SourceGraphic" in2="effect2_dropShadow_4_2" result="shape"/>
</filter>
<clipPath id="clip0_4_2">
<rect width="164" height="38" fill="white"/>
</clipPath>
</defs>
</svg>
