<svg width="164" height="37" viewBox="0 0 164 37" fill="none" xmlns="http://www.w3.org/2000/svg">
<path fill-rule="evenodd" clip-rule="evenodd" d="M19 32C26.732 32 33 25.732 33 18C33 10.268 26.732 4 19 4C11.268 4 5 10.268 5 18C5 25.732 11.268 32 19 32ZM12.4935 12.5639L11.202 23.2949H13.407L14.0685 17.7194C14.2365 17.1874 14.429 16.7114 14.646 16.2914C14.863 15.8644 15.0975 15.5039 15.3495 15.2099C15.6015 14.9159 15.8675 14.6919 16.1475 14.5379C16.4275 14.3769 16.7215 14.2964 17.0295 14.2964C17.2605 14.2964 17.446 14.3384 17.586 14.4224C17.726 14.5064 17.831 14.6394 17.901 14.8214C17.971 14.9964 18.0095 15.2239 18.0165 15.5039C18.0235 15.7769 18.0025 16.1024 17.9535 16.4804L17.145 23.2949H19.3605L20.0325 17.5724C20.2005 17.0544 20.393 16.5924 20.61 16.1864C20.827 15.7804 21.0615 15.4374 21.3135 15.1574C21.5655 14.8774 21.828 14.6639 22.101 14.5169C22.381 14.3699 22.661 14.2964 22.941 14.2964C23.172 14.2964 23.3575 14.3384 23.4975 14.4224C23.6445 14.5064 23.753 14.6394 23.823 14.8214C23.9 14.9964 23.942 15.2239 23.949 15.5039C23.963 15.7769 23.9455 16.1024 23.8965 16.4804L23.0985 23.2949H25.314L26.1225 16.4804C26.2765 15.1854 26.147 14.1844 25.734 13.4774C25.321 12.7704 24.6595 12.4169 23.7495 12.4169C23.0215 12.4169 22.339 12.6374 21.702 13.0784C21.065 13.5124 20.4875 14.1949 19.9695 15.1259C19.9415 14.2509 19.7455 13.5824 19.3815 13.1204C19.0175 12.6514 18.4925 12.4169 17.8065 12.4169C17.1485 12.4169 16.522 12.6199 15.927 13.0259C15.339 13.4249 14.793 14.0269 14.289 14.8319L14.3835 13.3199C14.3835 13.0609 14.317 12.8719 14.184 12.7529C14.058 12.6269 13.8725 12.5639 13.6275 12.5639H12.4935Z" fill="white"/>
<path d="M73.6372 19.7224C73.1747 19.7224 72.7517 19.8258 72.3683 20.0328C71.991 20.2397 71.6654 20.5227 71.3915 20.8817C71.1177 21.2347 70.9047 21.6485 70.7525 22.1232C70.6065 22.5918 70.5335 23.0939 70.5335 23.6294C70.5335 23.9337 70.5578 24.1923 70.6065 24.4053C70.6552 24.6183 70.7191 24.7918 70.7982 24.9257C70.8834 25.0535 70.9808 25.1478 71.0903 25.2087C71.2059 25.2695 71.3307 25.2999 71.4646 25.2999C71.6715 25.2999 71.8723 25.2239 72.0671 25.0717C72.2618 24.9135 72.4444 24.7005 72.6148 24.4327C72.7913 24.165 72.9525 23.8515 73.0986 23.4925C73.2446 23.1334 73.3694 22.75 73.4729 22.3423L73.8106 19.7224H73.6372ZM73.199 25.8111C72.8156 26.3467 72.3835 26.7696 71.9027 27.08C71.4281 27.3843 70.9047 27.5364 70.3326 27.5364C69.9918 27.5364 69.6632 27.4695 69.3467 27.3356C69.0303 27.1956 68.7503 26.9887 68.5069 26.7149C68.2635 26.4349 68.0687 26.082 67.9227 25.656C67.7766 25.2239 67.7036 24.7157 67.7036 24.1315C67.7036 23.2734 67.8588 22.461 68.1692 21.6942C68.4856 20.9213 68.9238 20.2458 69.4837 19.6676C70.0496 19.0895 70.7191 18.63 71.492 18.2892C72.2648 17.9484 73.1138 17.778 74.0388 17.778C74.4892 17.778 74.9456 17.8084 75.4081 17.8693C75.8706 17.9301 76.3271 18.0397 76.7774 18.1979L75.6272 27.3904H74.1119C73.9354 27.3904 73.7863 27.3691 73.6646 27.3265C73.5489 27.2778 73.4546 27.2139 73.3816 27.1348C73.3146 27.0557 73.2659 26.9613 73.2355 26.8518C73.2112 26.7423 73.199 26.6236 73.199 26.4958V25.8111ZM81.8579 13.7249L80.9176 21.3838H81.1093C81.2676 21.3838 81.3923 21.3594 81.4836 21.3108C81.581 21.256 81.6814 21.1677 81.7849 21.046L83.7384 18.3805C83.8601 18.2283 83.9879 18.1158 84.1218 18.0427C84.2617 17.9636 84.4321 17.9241 84.633 17.9241H87.1707L84.5234 21.2925C84.2678 21.609 83.9818 21.8554 83.6653 22.0319C83.7931 22.1354 83.9027 22.2571 83.994 22.3971C84.0853 22.537 84.1705 22.6922 84.2496 22.8626L86.1483 27.3904H83.6836C83.4828 27.3904 83.3154 27.3569 83.1815 27.29C83.0537 27.2169 82.9533 27.0922 82.8803 26.9157L81.5658 23.5655C81.4988 23.4134 81.4258 23.316 81.3467 23.2734C81.2737 23.2247 81.1519 23.2004 80.9815 23.2004H80.6894L80.1782 27.3904H77.3849L79.0645 13.7249H81.8579ZM92.554 19.7224C92.0915 19.7224 91.6685 19.8258 91.2851 20.0328C90.9078 20.2397 90.5822 20.5227 90.3084 20.8817C90.0345 21.2347 89.8215 21.6485 89.6694 22.1232C89.5233 22.5918 89.4503 23.0939 89.4503 23.6294C89.4503 23.9337 89.4746 24.1923 89.5233 24.4053C89.572 24.6183 89.6359 24.7918 89.715 24.9257C89.8002 25.0535 89.8976 25.1478 90.0071 25.2087C90.1228 25.2695 90.2475 25.2999 90.3814 25.2999C90.5883 25.2999 90.7891 25.2239 90.9839 25.0717C91.1786 24.9135 91.3612 24.7005 91.5316 24.4327C91.7081 24.165 91.8694 23.8515 92.0154 23.4925C92.1615 23.1334 92.2862 22.75 92.3897 22.3423L92.7274 19.7224H92.554ZM92.1158 25.8111C91.7324 26.3467 91.3003 26.7696 90.8196 27.08C90.3449 27.3843 89.8215 27.5364 89.2495 27.5364C88.9087 27.5364 88.58 27.4695 88.2636 27.3356C87.9471 27.1956 87.6672 26.9887 87.4237 26.7149C87.1803 26.4349 86.9856 26.082 86.8395 25.656C86.6935 25.2239 86.6204 24.7157 86.6204 24.1315C86.6204 23.2734 86.7756 22.461 87.086 21.6942C87.4024 20.9213 87.8406 20.2458 88.4005 19.6676C88.9665 19.0895 89.6359 18.63 90.4088 18.2892C91.1817 17.9484 92.0306 17.778 92.9557 17.778C93.406 17.778 93.8624 17.8084 94.3249 17.8693C94.7875 17.9301 95.2439 18.0397 95.6942 18.1979L94.544 27.3904H93.0287C92.8522 27.3904 92.7031 27.3691 92.5814 27.3265C92.4658 27.2778 92.3714 27.2139 92.2984 27.1348C92.2315 27.0557 92.1828 26.9613 92.1523 26.8518C92.128 26.7423 92.1158 26.6236 92.1158 26.4958V25.8111ZM99.8527 19.5581C100.309 18.9495 100.808 18.5022 101.35 18.2162C101.891 17.9241 102.451 17.778 103.029 17.778C103.419 17.778 103.775 17.8571 104.098 18.0153C104.426 18.1736 104.697 18.4048 104.91 18.7091C105.129 19.0134 105.284 19.3907 105.376 19.8411C105.467 20.2853 105.476 20.7965 105.403 21.3747L104.691 27.3904H101.861L102.573 21.3747C102.603 21.1191 102.613 20.903 102.6 20.7265C102.594 20.55 102.564 20.4101 102.509 20.3066C102.454 20.2032 102.378 20.1301 102.281 20.0875C102.184 20.0388 102.068 20.0145 101.934 20.0145C101.727 20.0145 101.511 20.0784 101.286 20.2062C101.061 20.334 100.845 20.5166 100.638 20.7539C100.437 20.9852 100.251 21.2682 100.081 21.6029C99.9105 21.9315 99.7766 22.2966 99.6793 22.6983L99.1589 27.3904H96.3291L97.461 17.9241H98.9216C99.2137 17.9241 99.4419 17.994 99.6062 18.134C99.7706 18.2679 99.8527 18.49 99.8527 18.8004V19.5581ZM112.893 19.9141C112.808 20.0236 112.729 20.1027 112.656 20.1514C112.583 20.2001 112.485 20.2245 112.364 20.2245C112.242 20.2245 112.12 20.1971 111.998 20.1423C111.883 20.0875 111.755 20.0267 111.615 19.9597C111.481 19.8867 111.326 19.8228 111.149 19.768C110.979 19.7133 110.781 19.6859 110.556 19.6859C110.136 19.6859 109.835 19.768 109.652 19.9323C109.476 20.0906 109.388 20.2975 109.388 20.5531C109.388 20.7174 109.436 20.8574 109.534 20.973C109.637 21.0886 109.771 21.1921 109.935 21.2834C110.1 21.3747 110.285 21.4599 110.492 21.539C110.705 21.612 110.921 21.6972 111.14 21.7946C111.359 21.8859 111.572 21.9924 111.779 22.1141C111.992 22.2358 112.181 22.3849 112.345 22.5614C112.51 22.7379 112.64 22.9478 112.738 23.1912C112.841 23.4347 112.893 23.7237 112.893 24.0585C112.893 24.5331 112.799 24.9835 112.61 25.4095C112.421 25.8294 112.151 26.1976 111.798 26.514C111.445 26.8244 111.016 27.0739 110.51 27.2626C110.011 27.4452 109.449 27.5364 108.822 27.5364C108.523 27.5364 108.228 27.506 107.936 27.4452C107.644 27.3843 107.367 27.3021 107.106 27.1987C106.85 27.0952 106.616 26.9735 106.403 26.8335C106.19 26.6875 106.016 26.5323 105.882 26.368L106.576 25.3273C106.661 25.2056 106.759 25.1113 106.868 25.0443C106.984 24.9713 107.124 24.9348 107.288 24.9348C107.44 24.9348 107.571 24.9713 107.681 25.0443C107.79 25.1174 107.909 25.1965 108.037 25.2817C108.164 25.3669 108.317 25.446 108.493 25.519C108.67 25.5921 108.901 25.6286 109.187 25.6286C109.588 25.6286 109.887 25.5403 110.081 25.3638C110.276 25.1813 110.374 24.9683 110.374 24.7248C110.374 24.5362 110.322 24.381 110.218 24.2593C110.121 24.1376 109.99 24.0341 109.826 23.9489C109.662 23.8576 109.476 23.7785 109.269 23.7116C109.062 23.6385 108.849 23.5594 108.63 23.4742C108.411 23.389 108.198 23.2917 107.991 23.1821C107.784 23.0665 107.598 22.9235 107.434 22.7531C107.27 22.5827 107.136 22.3727 107.032 22.1232C106.935 21.8737 106.886 21.5724 106.886 21.2195C106.886 20.7813 106.966 20.3553 107.124 19.9415C107.288 19.5276 107.528 19.1625 107.845 18.846C108.167 18.5235 108.566 18.2649 109.041 18.0701C109.515 17.8754 110.069 17.778 110.702 17.778C111.335 17.778 111.898 17.8875 112.391 18.1066C112.89 18.3257 113.301 18.5935 113.623 18.9099L112.893 19.9141Z" fill="white"/>
<path d="M43.6593 27L45.7031 10.0728H47.7798C48.2084 10.0728 48.538 10.1772 48.7687 10.386C49.0105 10.5948 49.1314 10.9299 49.1314 11.3914L49.0489 13.2539C49.8071 12.1001 50.6312 11.2431 51.5213 10.6827C52.4113 10.1113 53.3398 9.82561 54.3067 9.82561C55.3396 9.82561 56.1582 10.1717 56.7626 10.864C57.3669 11.5562 57.7186 12.5562 57.8174 13.8637C58.6086 12.4792 59.4821 11.4628 60.4381 10.8145C61.4051 10.1553 62.4544 9.82561 63.5862 9.82561C64.3004 9.82561 64.9267 9.96845 65.4652 10.2541C66.0036 10.5398 66.4431 10.9574 66.7837 11.5068C67.1244 12.0452 67.3551 12.7155 67.476 13.5176C67.5968 14.3088 67.5914 15.2153 67.4595 16.2372L66.1904 27H62.1687L63.4379 16.2372C63.5807 15.1384 63.5477 14.3527 63.339 13.8802C63.1412 13.3967 62.7346 13.155 62.1193 13.155C61.7017 13.155 61.2952 13.2649 60.8996 13.4846C60.504 13.7044 60.1249 14.0231 59.7623 14.4406C59.4107 14.8582 59.0811 15.3691 58.7734 15.9734C58.4767 16.5778 58.213 17.2591 57.9823 18.0172L56.9274 27H52.9058L54.1914 16.2372C54.3232 15.1384 54.2958 14.3527 54.109 13.8802C53.9222 13.3967 53.5156 13.155 52.8893 13.155C52.4498 13.155 52.0267 13.2704 51.6202 13.5011C51.2246 13.7319 50.8455 14.067 50.4829 14.5065C50.1313 14.9351 49.8016 15.4625 49.494 16.0888C49.1973 16.7042 48.9336 17.3964 48.7028 18.1656L47.648 27H43.6593Z" fill="white"/>
</svg>
