<svg width="164" height="35" viewBox="0 0 164 35" fill="none" xmlns="http://www.w3.org/2000/svg">
<g clip-path="url(#clip0_5_28)">
<path d="M22.9367 28.1648L26.3829 28.9936L32.0764 23.6415L29.4184 22.9984L25.6429 26.5236L23.5261 26.015L22.6783 23.7476L23.9693 22.6532L25.6115 23.0505L27.6171 21.2433L24.6281 20.5202L23.3518 16.5774L17.789 15.2246L17.0096 12.4666L18.2871 11.457L19.8982 11.8468L20.5518 13.5663L20.565 13.5695L23.0584 14.1727L21.9243 11.0883L23.7357 9.37827L22.9701 7.23087L20.2862 9.6476L19.0689 9.35311L18.161 6.92364L20.1183 5.14256L24.9174 6.3036L26.2929 9.98365L28.3515 10.4845L24.7586 13.9083L26.2027 17.8659L27.9182 16.0809L27.3298 14.4996L30.0051 12.0115L31.1447 15.8226L28.7481 18.3061L31.2779 18.9181L33.6716 16.4375L31.4302 8.94041L27.9849 8.10201L26.6078 4.42016L19.4758 2.69475L16.568 5.33993L13.1205 4.51079L7.42831 9.86322L10.0843 10.5058L13.8598 6.98062L15.9766 7.48925L16.8244 9.75657L15.5334 10.851L13.8912 10.4537L11.8863 12.261L14.8753 12.9842L16.1391 16.9758L21.6947 18.3611L22.4938 21.0378L21.2163 22.0473L19.6052 21.6576L18.9516 19.9381L18.9383 19.9349L16.4443 19.3315L17.5791 22.4161L15.7677 24.1261L16.5332 26.2735L19.2187 23.8564L20.4347 24.1506L21.3417 26.5806L19.3844 28.3617L14.5859 27.2008L13.2096 23.5212L11.1519 23.0199L14.7461 19.5964L13.3165 15.6424L11.603 17.4278L12.1736 19.0048L9.49823 21.4929L8.35872 17.6818L10.7552 15.1983L8.22681 14.5866L5.83306 17.0672L8.07254 24.5638L11.5184 25.4024L12.8956 29.0842L20.0289 30.81L22.9367 28.1648Z" fill="white"/>
<path d="M11.5508 25.162L12.4582 28.5302L19.7651 30.9284L19.0685 28.3288L14.2439 26.7272L13.6861 24.6585L15.2458 22.8578L16.7997 23.4577L17.2301 25.0639L19.7364 25.9455L18.9531 23.022L21.7588 20.0618L20.307 14.6178L22.3229 12.645L23.797 13.2732L24.2193 14.849L23.0414 16.2238L23.0449 16.2368L23.6983 18.6754L25.8292 16.2423L28.1601 17.0019L29.655 15.3287L26.3023 14.1481L25.9833 12.9576L27.6548 11.0286L30.1159 11.8807L31.3736 16.5745L28.8418 19.4967L29.3789 21.5114L24.7278 20.0199L21.9885 23.1322L24.339 23.7735L25.4282 22.5201L28.8385 23.6597L26.0822 26.4398L22.8073 25.539L23.4702 28.0132L26.7414 28.9129L32.1634 23.4442L31.2648 20.0723L33.7974 17.1478L31.9283 10.1724L28.2728 8.90596L27.3651 5.53647L20.0585 3.1396L20.7546 5.73727L25.5793 7.33884L26.137 9.40758L24.5773 11.2082L23.0234 10.6083L22.593 9.00216L20.0868 8.12123L20.8702 11.0447L18.0165 14.0171L19.4368 19.4702L17.5004 21.4217L16.0262 20.7935L15.604 19.2177L16.7819 17.8429L16.7784 17.83L16.1248 15.3906L13.9941 17.8244L11.6631 17.0648L10.1683 18.738L13.522 19.9197L13.8406 21.109L12.1683 23.0375L9.70719 22.1853L8.44966 17.4922L10.9807 14.5695L10.4444 12.5553L15.0958 14.0481L17.839 10.9501L15.4889 10.3106L14.3951 11.5466L10.9848 10.407L13.7411 7.62693L17.016 8.52771L16.3534 6.05479L13.0822 5.15507L7.65967 10.6219L8.55849 13.9944L6.0259 16.9189L7.8953 23.8956L11.5508 25.162Z" fill="white"/>
<path d="M45.6158 25V8.28063H48.668V25H45.6158ZM57.5168 25.2693C56.3049 25.2693 55.2128 24.9925 54.2403 24.4389C53.2827 23.8704 52.5272 23.1074 51.9736 22.1499C51.42 21.1774 51.1433 20.0852 51.1433 18.8733C51.1433 17.6614 51.42 16.5767 51.9736 15.6192C52.5272 14.6617 53.2827 13.9061 54.2403 13.3525C55.2128 12.799 56.3049 12.5222 57.5168 12.5222C58.3846 12.5222 59.1925 12.6793 59.9406 12.9935C60.6886 13.2927 61.332 13.7116 61.8706 14.2502C62.4241 14.7739 62.8206 15.4023 63.06 16.1354L60.4792 17.2575C60.2547 16.6441 59.8732 16.1503 59.3346 15.7763C58.811 15.4023 58.205 15.2152 57.5168 15.2152C56.8735 15.2152 56.2975 15.3723 55.7888 15.6865C55.295 16.0007 54.906 16.4346 54.6218 16.9882C54.3375 17.5417 54.1954 18.1776 54.1954 18.8957C54.1954 19.6139 54.3375 20.2498 54.6218 20.8033C54.906 21.3569 55.295 21.7908 55.7888 22.105C56.2975 22.4192 56.8735 22.5763 57.5168 22.5763C58.22 22.5763 58.8334 22.3892 59.3571 22.0152C59.8807 21.6412 60.2547 21.14 60.4792 20.5116L63.06 21.6786C62.8206 22.3668 62.4316 22.9877 61.893 23.5413C61.3544 24.0799 60.7111 24.5063 59.963 24.8205C59.2149 25.1197 58.3995 25.2693 57.5168 25.2693ZM71.0808 25.2693C69.824 25.2693 68.7244 24.985 67.7818 24.4165C66.8392 23.848 66.1061 23.0775 65.5825 22.105C65.0588 21.1325 64.797 20.0553 64.797 18.8733C64.797 17.6465 65.0588 16.5618 65.5825 15.6192C66.1211 14.6617 66.8467 13.9061 67.7594 13.3525C68.687 12.799 69.7193 12.5222 70.8564 12.5222C71.8139 12.5222 72.6517 12.6793 73.3699 12.9935C74.103 13.3077 74.7239 13.7415 75.2326 14.2951C75.7413 14.8487 76.1303 15.4845 76.3996 16.2027C76.6689 16.9059 76.8035 17.6689 76.8035 18.4918C76.8035 18.7012 76.7886 18.9182 76.7586 19.1426C76.7437 19.367 76.7063 19.5615 76.6464 19.7261H67.2207V17.4819H74.9857L73.5943 18.5367C73.729 17.8484 73.6915 17.235 73.4821 16.6964C73.2876 16.1578 72.9584 15.7314 72.4946 15.4172C72.0458 15.103 71.4997 14.9459 70.8564 14.9459C70.2429 14.9459 69.6969 15.103 69.2181 15.4172C68.7393 15.7164 68.3728 16.1653 68.1184 16.7637C67.879 17.3472 67.7893 18.0579 67.8491 18.8957C67.7893 19.6438 67.8865 20.3096 68.1409 20.8931C68.4102 21.4616 68.7992 21.903 69.3079 22.2172C69.8315 22.5314 70.43 22.6885 71.1032 22.6885C71.7765 22.6885 72.345 22.5463 72.8088 22.2621C73.2876 21.9778 73.6616 21.5963 73.9309 21.1175L76.3098 22.2845C76.0704 22.868 75.6964 23.3842 75.1877 23.833C74.679 24.2819 74.0731 24.6334 73.3699 24.8878C72.6817 25.1421 71.9186 25.2693 71.0808 25.2693ZM91.1225 25.2693C89.9255 25.2693 88.8184 25.0524 87.801 24.6185C86.7986 24.1846 85.9159 23.5787 85.1529 22.8007C84.4048 22.0227 83.8213 21.11 83.4024 20.0627C82.9835 19.0154 82.774 17.8709 82.774 16.6291C82.774 15.3873 82.976 14.2428 83.3799 13.1955C83.7989 12.1332 84.3823 11.2205 85.1304 10.4575C85.8934 9.67952 86.7837 9.08107 87.801 8.66215C88.8184 8.22827 89.9255 8.01133 91.1225 8.01133C92.3194 8.01133 93.3891 8.21331 94.3317 8.61726C95.2892 9.02122 96.0971 9.55983 96.7554 10.2331C97.4137 10.8914 97.885 11.617 98.1693 12.41L95.4313 13.6892C95.1172 12.8513 94.586 12.1631 93.838 11.6245C93.0899 11.0709 92.1847 10.7941 91.1225 10.7941C90.0752 10.7941 89.1476 11.041 88.3396 11.5347C87.5467 12.0285 86.9258 12.7092 86.4769 13.577C86.0431 14.4447 85.8261 15.4621 85.8261 16.6291C85.8261 17.7961 86.0431 18.8209 86.4769 19.7037C86.9258 20.5714 87.5467 21.2522 88.3396 21.7459C89.1476 22.2396 90.0752 22.4865 91.1225 22.4865C92.1847 22.4865 93.0899 22.2172 93.838 21.6786C94.586 21.125 95.1172 20.4293 95.4313 19.5915L98.1693 20.8707C97.885 21.6636 97.4137 22.3967 96.7554 23.07C96.0971 23.7283 95.2892 24.2594 94.3317 24.6634C93.3891 25.0673 92.3194 25.2693 91.1225 25.2693ZM104.754 25.2693C103.812 25.2693 102.989 25.0598 102.285 24.6409C101.597 24.222 101.066 23.6385 100.692 22.8904C100.333 22.1424 100.153 21.2671 100.153 20.2647V12.7915H103.093V20.0179C103.093 20.5265 103.191 20.9754 103.385 21.3644C103.595 21.7384 103.886 22.0376 104.26 22.2621C104.649 22.4715 105.083 22.5763 105.562 22.5763C106.041 22.5763 106.467 22.4715 106.841 22.2621C107.215 22.0376 107.507 21.7309 107.716 21.3419C107.926 20.9529 108.031 20.4891 108.031 19.9505V12.7915H110.971V25H108.188V22.5987L108.435 23.0251C108.15 23.7732 107.679 24.3342 107.021 24.7083C106.377 25.0823 105.622 25.2693 104.754 25.2693ZM120.369 25.2693C119.486 25.2693 118.671 25.0972 117.923 24.7531C117.189 24.3941 116.606 23.8854 116.172 23.2271L116.464 22.6436V25H113.703V8.01133H116.643V15.2152L116.194 14.6093C116.613 13.951 117.182 13.4423 117.9 13.0832C118.618 12.7092 119.449 12.5222 120.391 12.5222C121.543 12.5222 122.583 12.8065 123.511 13.375C124.438 13.9435 125.171 14.7066 125.71 15.6641C126.264 16.6216 126.54 17.6988 126.54 18.8957C126.54 20.0777 126.271 21.1549 125.732 22.1274C125.194 23.0999 124.461 23.8704 123.533 24.4389C122.605 24.9925 121.551 25.2693 120.369 25.2693ZM120.032 22.5763C120.705 22.5763 121.304 22.4192 121.827 22.105C122.351 21.7908 122.755 21.3569 123.039 20.8033C123.339 20.2498 123.488 19.6139 123.488 18.8957C123.488 18.1776 123.339 17.5492 123.039 17.0106C122.755 16.457 122.351 16.0232 121.827 15.709C121.304 15.3798 120.705 15.2152 120.032 15.2152C119.389 15.2152 118.805 15.3723 118.282 15.6865C117.773 16.0007 117.369 16.4421 117.07 17.0106C116.785 17.5642 116.643 18.1926 116.643 18.8957C116.643 19.6139 116.785 20.2498 117.07 20.8033C117.369 21.3569 117.773 21.7908 118.282 22.105C118.805 22.4192 119.389 22.5763 120.032 22.5763ZM134.572 25.2693C133.315 25.2693 132.215 24.985 131.273 24.4165C130.33 23.848 129.597 23.0775 129.073 22.105C128.55 21.1325 128.288 20.0553 128.288 18.8733C128.288 17.6465 128.55 16.5618 129.073 15.6192C129.612 14.6617 130.338 13.9061 131.25 13.3525C132.178 12.799 133.21 12.5222 134.347 12.5222C135.305 12.5222 136.143 12.6793 136.861 12.9935C137.594 13.3077 138.215 13.7415 138.724 14.2951C139.232 14.8487 139.621 15.4845 139.891 16.2027C140.16 16.9059 140.295 17.6689 140.295 18.4918C140.295 18.7012 140.28 18.9182 140.25 19.1426C140.235 19.367 140.197 19.5615 140.137 19.7261H130.712V17.4819H138.477L137.085 18.5367C137.22 17.8484 137.183 17.235 136.973 16.6964C136.779 16.1578 136.449 15.7314 135.986 15.4172C135.537 15.103 134.991 14.9459 134.347 14.9459C133.734 14.9459 133.188 15.103 132.709 15.4172C132.23 15.7164 131.864 16.1653 131.609 16.7637C131.37 17.3472 131.28 18.0579 131.34 18.8957C131.28 19.6438 131.378 20.3096 131.632 20.8931C131.901 21.4616 132.29 21.903 132.799 22.2172C133.322 22.5314 133.921 22.6885 134.594 22.6885C135.267 22.6885 135.836 22.5463 136.3 22.2621C136.779 21.9778 137.153 21.5963 137.422 21.1175L139.801 22.2845C139.561 22.868 139.187 23.3842 138.679 23.833C138.17 24.2819 137.564 24.6334 136.861 24.8878C136.173 25.1421 135.41 25.2693 134.572 25.2693ZM147.169 25.2693C145.867 25.2693 144.73 24.9626 143.757 24.3492C142.8 23.7208 142.142 22.8755 141.783 21.8132L143.982 20.7584C144.296 21.4467 144.73 21.9853 145.283 22.3743C145.852 22.7633 146.48 22.9578 147.169 22.9578C147.707 22.9578 148.134 22.8381 148.448 22.5987C148.762 22.3593 148.919 22.0451 148.919 21.6561C148.919 21.4167 148.852 21.2222 148.717 21.0726C148.597 20.9081 148.425 20.7734 148.201 20.6687C147.992 20.549 147.76 20.4517 147.505 20.3769L145.508 19.8159C144.476 19.5166 143.69 19.0603 143.151 18.4469C142.628 17.8335 142.366 17.1079 142.366 16.27C142.366 15.522 142.553 14.8711 142.927 14.3176C143.316 13.749 143.847 13.3077 144.52 12.9935C145.209 12.6793 145.994 12.5222 146.877 12.5222C148.029 12.5222 149.046 12.799 149.929 13.3525C150.812 13.9061 151.44 14.6841 151.814 15.6865L149.57 16.7413C149.36 16.1877 149.009 15.7464 148.515 15.4172C148.021 15.0881 147.468 14.9235 146.854 14.9235C146.361 14.9235 145.972 15.0357 145.687 15.2601C145.403 15.4845 145.261 15.7763 145.261 16.1354C145.261 16.3598 145.321 16.5543 145.441 16.7189C145.56 16.8834 145.725 17.0181 145.934 17.1228C146.159 17.2276 146.413 17.3248 146.697 17.4146L148.65 17.9981C149.652 18.2973 150.423 18.7461 150.961 19.3446C151.515 19.943 151.792 20.6762 151.792 21.5439C151.792 22.277 151.597 22.9278 151.208 23.4964C150.819 24.05 150.281 24.4838 149.592 24.798C148.904 25.1122 148.096 25.2693 147.169 25.2693Z" fill="white"/>
</g>
<defs>
<clipPath id="clip0_5_28">
<rect width="164" height="34.5263" fill="white"/>
</clipPath>
</defs>
</svg>
